<?xml version="1.0" encoding="iso-8859-1"?>
<!-- Generator: Adobe Illustrator 19.0.0, SVG Export Plug-In . SVG Version: 6.00 Build 0)  -->
<svg version="1.1" id="Capa_1" xmlns="http://www.w3.org/2000/svg" xmlns:xlink="http://www.w3.org/1999/xlink" x="0px" y="0px"
	 viewBox="0 0 512 512" style="enable-background:new 0 0 512 512;" xml:space="preserve">
<g>
	<g>
		<path d="M307.089,150.622c-2.04-3.671-6.668-4.994-10.339-2.954l-26.771,14.87l-26.771-14.87c-2.295-1.276-5.089-1.276-7.385,0
			l-26.766,14.87l-26.766-14.87c-2.297-1.276-5.09-1.276-7.386,0l-26.766,14.87l-26.764-14.87
			c-3.673-2.041-8.302-0.717-10.339,2.954c-2.042,3.67-0.72,8.3,2.951,10.339l30.457,16.922c2.297,1.276,5.09,1.276,7.386,0
			l26.766-14.87l26.766,14.87c1.149,0.638,2.421,0.957,3.694,0.957s2.545-0.318,3.693-0.957l26.766-14.87l26.771,14.87
			c2.295,1.276,5.09,1.276,7.384,0l30.464-16.922C307.805,158.922,309.128,154.293,307.089,150.622z"/>
	</g>
</g>
<g>
	<g>
		<path d="M307.09,250.664c-2.04-3.671-6.668-4.994-10.339-2.954l-26.771,14.87l-26.771-14.87c-2.295-1.276-5.089-1.276-7.385,0
			l-26.766,14.87l-26.766-14.87c-2.297-1.276-5.09-1.276-7.386,0l-26.766,14.87l-26.764-14.87
			c-3.673-2.041-8.302-0.717-10.339,2.954c-2.04,3.671-0.718,8.301,2.953,10.34l30.457,16.922c1.149,0.638,2.421,0.957,3.694,0.957
			s2.545-0.318,3.693-0.957l26.766-14.87l26.766,14.87c2.297,1.276,5.09,1.276,7.386,0l26.766-14.87l26.771,14.87
			c2.293,1.274,5.087,1.274,7.382-0.001l30.464-16.922C307.806,258.964,309.129,254.335,307.09,250.664z"/>
	</g>
</g>
<g>
	<g>
		<path d="M307.089,200.643c-2.04-3.671-6.668-4.994-10.339-2.954l-26.771,14.871l-26.77-14.871c-2.297-1.276-5.09-1.276-7.386,0
			l-26.766,14.871l-26.766-14.871c-2.297-1.276-5.09-1.276-7.386,0l-26.766,14.87l-26.764-14.87
			c-3.67-2.04-8.302-0.717-10.339,2.954c-2.042,3.67-0.72,8.299,2.951,10.339l30.457,16.922c1.149,0.638,2.421,0.957,3.694,0.957
			s2.545-0.318,3.693-0.957l26.766-14.871l26.766,14.871c2.297,1.276,5.09,1.276,7.386,0l26.766-14.871l26.771,14.871
			c2.295,1.276,5.089,1.276,7.385,0l30.464-16.922C307.805,208.943,309.128,204.314,307.089,200.643z"/>
	</g>
</g>
<g>
	<g>
		<path d="M483.541,236.809l-3.103-3.103l-31.543-31.544c-1.427-1.427-3.36-2.227-5.378-2.227s-3.95,0.801-5.378,2.227
			l-82.602,82.602V73.947c16.969-3.521,29.761-18.586,29.761-36.583C385.301,16.761,368.539,0,347.938,0h-41.242
			c-4.2,0-7.604,3.405-7.604,7.604c0,4.199,3.404,7.604,7.604,7.604h41.242c12.216,0,22.155,9.939,22.155,22.156
			c0,12.217-9.939,22.155-22.155,22.155H100.247c4.584-6.204,7.3-13.867,7.3-22.155s-2.716-15.952-7.3-22.156h181.102
			c4.2,0,7.604-3.405,7.604-7.604c0-4.199-3.404-7.604-7.604-7.604H70.185C41.682,0,18.493,23.189,18.493,51.692v407.812
			c0,4.199,3.404,7.604,7.604,7.604h36.486v37.288c0,4.199,3.404,7.604,7.604,7.604h277.748c4.2,0,7.604-3.405,7.604-7.604V369.359
			l119.327-119.327c2.58,3.653,3.785,8.118,3.344,12.654c-0.546,5.619-3.549,10.648-8.236,13.796l-47.984,32.229
			c-15.522,10.425-24.789,27.812-24.789,46.511c0,4.199,3.404,7.604,7.604,7.604s7.604-3.405,7.604-7.604
			c0-13.623,6.751-26.292,18.06-33.886l47.984-32.229c8.476-5.693,13.904-14.786,14.893-24.948
			C494.335,253.996,490.76,244.028,483.541,236.809z M77.791,496.792v-99.593c0-4.199-3.404-7.604-7.604-7.604
			s-7.604,3.405-7.604,7.604V451.9H33.701V51.692c0-20.117,16.366-36.484,36.484-36.484c12.216,0,22.155,9.939,22.155,22.156
			c0,12.217-9.939,22.155-22.155,22.155c-4.2,0-7.604,3.405-7.604,7.604c0,0.013,0.002,0.026,0.002,0.04v304.691
			c0,4.199,3.404,7.604,7.604,7.604s7.604-3.405,7.604-7.604V74.731h262.54v225.241l-59.91,59.91
			c-5.649,5.648-8.761,13.159-8.761,21.148c0,5.387,1.419,10.554,4.074,15.082l-9.652,9.651c-2.971,2.97-2.971,7.783-0.001,10.753
			c1.485,1.485,3.431,2.227,5.378,2.227c1.946,0,3.892-0.742,5.377-2.227l9.652-9.652c4.528,2.653,9.696,4.074,15.082,4.074
			c7.989,0,15.5-3.111,21.148-8.76l17.613-17.613v112.227H77.791z M311.964,391.426c-2.776,2.777-6.467,4.306-10.394,4.306
			c-3.925,0-7.614-1.528-10.391-4.301c-0.001-0.001-0.003-0.003-0.004-0.005c-2.777-2.777-4.306-6.468-4.306-10.395
			s1.529-7.618,4.306-10.395l152.343-152.343l20.79,20.79L311.964,391.426z"/>
	</g>
</g>
<g>
</g>
<g>
</g>
<g>
</g>
<g>
</g>
<g>
</g>
<g>
</g>
<g>
</g>
<g>
</g>
<g>
</g>
<g>
</g>
<g>
</g>
<g>
</g>
<g>
</g>
<g>
</g>
<g>
</g>
</svg>
